<mxfile host="app.diagrams.net" modified="2024-01-09T22:10:45.098Z" agent="Mozilla/5.0 (Windows NT 10.0; Win64; x64) AppleWebKit/537.36 (KHTML, like Gecko) Chrome/120.0.0.0 Safari/537.36 Edg/120.0.0.0" etag="J2Dmm2zMC8tXDzxDGWeT" version="22.1.17" type="github">
  <diagram name="第 1 页" id="uvaruMxI-6ID3hCCs7TR">
    <mxGraphModel dx="1380" dy="1951" grid="1" gridSize="10" guides="1" tooltips="1" connect="1" arrows="1" fold="1" page="1" pageScale="1" pageWidth="827" pageHeight="1169" math="0" shadow="0">
      <root>
        <mxCell id="0" />
        <mxCell id="1" parent="0" />
        <mxCell id="P644Jg_88BZ01pfutYWq-10" style="edgeStyle=orthogonalEdgeStyle;rounded=0;orthogonalLoop=1;jettySize=auto;html=1;" edge="1" parent="1" source="P644Jg_88BZ01pfutYWq-1" target="P644Jg_88BZ01pfutYWq-3">
          <mxGeometry relative="1" as="geometry" />
        </mxCell>
        <mxCell id="P644Jg_88BZ01pfutYWq-1" value="数据库基础知识" style="shape=cube;whiteSpace=wrap;html=1;boundedLbl=1;backgroundOutline=1;darkOpacity=0.05;darkOpacity2=0.1;" vertex="1" parent="1">
          <mxGeometry x="230" y="150" width="120" height="80" as="geometry" />
        </mxCell>
        <mxCell id="P644Jg_88BZ01pfutYWq-13" style="edgeStyle=orthogonalEdgeStyle;rounded=0;orthogonalLoop=1;jettySize=auto;html=1;" edge="1" parent="1" source="P644Jg_88BZ01pfutYWq-2" target="P644Jg_88BZ01pfutYWq-7">
          <mxGeometry relative="1" as="geometry" />
        </mxCell>
        <mxCell id="P644Jg_88BZ01pfutYWq-2" value="C#基础知识及Winform控件的基本使用" style="shape=cube;whiteSpace=wrap;html=1;boundedLbl=1;backgroundOutline=1;darkOpacity=0.05;darkOpacity2=0.1;" vertex="1" parent="1">
          <mxGeometry x="230" y="590" width="120" height="80" as="geometry" />
        </mxCell>
        <mxCell id="P644Jg_88BZ01pfutYWq-11" style="edgeStyle=orthogonalEdgeStyle;rounded=0;orthogonalLoop=1;jettySize=auto;html=1;" edge="1" parent="1" source="P644Jg_88BZ01pfutYWq-3" target="P644Jg_88BZ01pfutYWq-4">
          <mxGeometry relative="1" as="geometry" />
        </mxCell>
        <mxCell id="P644Jg_88BZ01pfutYWq-3" value="VS2010安装" style="shape=cube;whiteSpace=wrap;html=1;boundedLbl=1;backgroundOutline=1;darkOpacity=0.05;darkOpacity2=0.1;" vertex="1" parent="1">
          <mxGeometry x="230" y="300" width="120" height="80" as="geometry" />
        </mxCell>
        <mxCell id="P644Jg_88BZ01pfutYWq-12" style="edgeStyle=orthogonalEdgeStyle;rounded=0;orthogonalLoop=1;jettySize=auto;html=1;" edge="1" parent="1" source="P644Jg_88BZ01pfutYWq-4" target="P644Jg_88BZ01pfutYWq-2">
          <mxGeometry relative="1" as="geometry" />
        </mxCell>
        <mxCell id="P644Jg_88BZ01pfutYWq-4" value="VS2019安装" style="shape=cube;whiteSpace=wrap;html=1;boundedLbl=1;backgroundOutline=1;darkOpacity=0.05;darkOpacity2=0.1;" vertex="1" parent="1">
          <mxGeometry x="230" y="440" width="120" height="80" as="geometry" />
        </mxCell>
        <mxCell id="P644Jg_88BZ01pfutYWq-16" style="edgeStyle=orthogonalEdgeStyle;rounded=0;orthogonalLoop=1;jettySize=auto;html=1;" edge="1" parent="1" source="P644Jg_88BZ01pfutYWq-5" target="P644Jg_88BZ01pfutYWq-15">
          <mxGeometry relative="1" as="geometry" />
        </mxCell>
        <mxCell id="P644Jg_88BZ01pfutYWq-5" value="SQLSercver安装（2016及以后版本均可）" style="shape=cube;whiteSpace=wrap;html=1;boundedLbl=1;backgroundOutline=1;darkOpacity=0.05;darkOpacity2=0.1;" vertex="1" parent="1">
          <mxGeometry x="230" y="-170" width="120" height="80" as="geometry" />
        </mxCell>
        <mxCell id="P644Jg_88BZ01pfutYWq-7" value="数据库操作" style="shape=cube;whiteSpace=wrap;html=1;boundedLbl=1;backgroundOutline=1;darkOpacity=0.05;darkOpacity2=0.1;" vertex="1" parent="1">
          <mxGeometry x="230" y="750" width="120" height="80" as="geometry" />
        </mxCell>
        <mxCell id="P644Jg_88BZ01pfutYWq-8" value="自命题增删改查demo实现" style="shape=cube;whiteSpace=wrap;html=1;boundedLbl=1;backgroundOutline=1;darkOpacity=0.05;darkOpacity2=0.1;" vertex="1" parent="1">
          <mxGeometry x="230" y="900" width="120" height="80" as="geometry" />
        </mxCell>
        <mxCell id="P644Jg_88BZ01pfutYWq-14" style="edgeStyle=orthogonalEdgeStyle;rounded=0;orthogonalLoop=1;jettySize=auto;html=1;entryX=0.492;entryY=0.004;entryDx=0;entryDy=0;entryPerimeter=0;" edge="1" parent="1" source="P644Jg_88BZ01pfutYWq-7" target="P644Jg_88BZ01pfutYWq-8">
          <mxGeometry relative="1" as="geometry" />
        </mxCell>
        <mxCell id="P644Jg_88BZ01pfutYWq-17" style="edgeStyle=orthogonalEdgeStyle;rounded=0;orthogonalLoop=1;jettySize=auto;html=1;" edge="1" parent="1" source="P644Jg_88BZ01pfutYWq-15" target="P644Jg_88BZ01pfutYWq-1">
          <mxGeometry relative="1" as="geometry" />
        </mxCell>
        <mxCell id="P644Jg_88BZ01pfutYWq-15" value="SSMS（数据库管理系统）安装" style="shape=cube;whiteSpace=wrap;html=1;boundedLbl=1;backgroundOutline=1;darkOpacity=0.05;darkOpacity2=0.1;" vertex="1" parent="1">
          <mxGeometry x="230" y="-10" width="120" height="80" as="geometry" />
        </mxCell>
      </root>
    </mxGraphModel>
  </diagram>
</mxfile>
